<?xml version="1.0" encoding="UTF-8" standalone="no"?>
<!DOCTYPE svg PUBLIC "-//W3C//DTD SVG 1.1//EN"
 "http://www.w3.org/Graphics/SVG/1.1/DTD/svg11.dtd">
<!-- Generated by graphviz version 2.47.0 (20210316.0004)
 -->
<!-- Title: dependencies Pages: 1 -->
<svg width="504pt" height="211pt"
 viewBox="0.00 0.00 504.00 211.00" xmlns="http://www.w3.org/2000/svg" xmlns:xlink="http://www.w3.org/1999/xlink">
<g id="graph0" class="graph" transform="scale(1 1) rotate(0) translate(4 207)">
<title>dependencies</title>
<polygon fill="white" stroke="transparent" points="-4,4 -4,-207 500,-207 500,4 -4,4"/>
<text text-anchor="start" x="227.01" y="-42.4" font-family="Times-12" font-weight="bold" font-size="14.00">Legend</text>
<polygon fill="#ffffb3" stroke="transparent" points="14,-10 14,-30 34,-30 34,-10 14,-10"/>
<text text-anchor="start" x="37.63" y="-15.4" font-family="Times-12" font-size="14.00"> &#160;Declarations</text>
<polygon fill="#8dd3c7" stroke="transparent" points="127,-10 127,-30 147,-30 147,-10 127,-10"/>
<text text-anchor="start" x="150.73" y="-15.4" font-family="Times-12" font-size="14.00"> &#160;Module</text>
<polygon fill="#80b1d3" stroke="transparent" points="213,-10 213,-30 233,-30 233,-10 213,-10"/>
<text text-anchor="start" x="236.78" y="-15.4" font-family="Times-12" font-size="14.00"> &#160;Bootstrap</text>
<polygon fill="#fdb462" stroke="transparent" points="310,-10 310,-30 330,-30 330,-10 310,-10"/>
<text text-anchor="start" x="333.67" y="-15.4" font-family="Times-12" font-size="14.00"> &#160;Providers</text>
<polygon fill="#fb8072" stroke="transparent" points="406,-10 406,-30 426,-30 426,-10 406,-10"/>
<text text-anchor="start" x="429.73" y="-15.4" font-family="Times-12" font-size="14.00"> &#160;Exports</text>
<g id="clust1" class="cluster">
<title>cluster_BbbModule</title>
<polygon fill="none" stroke="black" stroke-dasharray="1,5" points="121,-70 121,-195 375,-195 375,-70 121,-70"/>
</g>
<g id="clust3" class="cluster">
<title>cluster_BbbModule_imports</title>
<polygon fill="none" stroke="black" points="265,-78 265,-130 367,-130 367,-78 265,-78"/>
</g>
<g id="clust6" class="cluster">
<title>cluster_BbbModule_providers</title>
<polygon fill="none" stroke="black" points="129,-78 129,-130 257,-130 257,-78 129,-78"/>
</g>
<!-- UserModule -->
<g id="node1" class="node">
<title>UserModule</title>
<polygon fill="#8dd3c7" stroke="black" points="358.98,-122 355.98,-126 334.98,-126 331.98,-122 273.02,-122 273.02,-86 358.98,-86 358.98,-122"/>
<text text-anchor="middle" x="316" y="-99.8" font-family="Times,serif" font-size="14.00">UserModule</text>
</g>
<!-- BbbModule -->
<g id="node2" class="node">
<title>BbbModule</title>
<polygon fill="#8dd3c7" stroke="black" points="295.39,-187 292.39,-191 271.39,-191 268.39,-187 212.61,-187 212.61,-151 295.39,-151 295.39,-187"/>
<text text-anchor="middle" x="254" y="-164.8" font-family="Times,serif" font-size="14.00">BbbModule</text>
</g>
<!-- UserModule&#45;&gt;BbbModule -->
<g id="edge1" class="edge">
<title>UserModule&#45;&gt;BbbModule</title>
<path fill="none" stroke="black" d="M284.23,-122.11C284.23,-122.11 284.23,-140.99 284.23,-140.99"/>
<polygon fill="black" stroke="black" points="280.73,-140.99 284.23,-150.99 287.73,-140.99 280.73,-140.99"/>
</g>
<!-- BbbService -->
<g id="node3" class="node">
<title>BbbService</title>
<ellipse fill="#fdb462" stroke="black" cx="193" cy="-104" rx="56.18" ry="18"/>
<text text-anchor="middle" x="193" y="-99.8" font-family="Times,serif" font-size="14.00">BbbService</text>
</g>
<!-- BbbService&#45;&gt;BbbModule -->
<g id="edge2" class="edge">
<title>BbbService&#45;&gt;BbbModule</title>
<path fill="none" stroke="black" d="M230.82,-117.47C230.82,-117.47 230.82,-140.86 230.82,-140.86"/>
<polygon fill="black" stroke="black" points="227.32,-140.86 230.82,-150.86 234.32,-140.86 227.32,-140.86"/>
</g>
</g>
</svg>
