<?xml version="1.0" encoding="UTF-8" standalone="no"?>
<!DOCTYPE svg PUBLIC "-//W3C//DTD SVG 1.1//EN"
 "http://www.w3.org/Graphics/SVG/1.1/DTD/svg11.dtd">
<!-- Generated by graphviz version 2.47.0 (20210316.0004)
 -->
<!-- Title: dependencies Pages: 1 -->
<svg width="933pt" height="211pt"
 viewBox="0.00 0.00 933.00 211.00" xmlns="http://www.w3.org/2000/svg" xmlns:xlink="http://www.w3.org/1999/xlink">
<g id="graph0" class="graph" transform="scale(1 1) rotate(0) translate(4 207)">
<title>dependencies</title>
<polygon fill="white" stroke="transparent" points="-4,4 -4,-207 929,-207 929,4 -4,4"/>
<text text-anchor="start" x="441.51" y="-42.4" font-family="Times-12" font-weight="bold" font-size="14.00">Legend</text>
<polygon fill="#ffffb3" stroke="transparent" points="228.5,-10 228.5,-30 248.5,-30 248.5,-10 228.5,-10"/>
<text text-anchor="start" x="252.13" y="-15.4" font-family="Times-12" font-size="14.00"> &#160;Declarations</text>
<polygon fill="#8dd3c7" stroke="transparent" points="341.5,-10 341.5,-30 361.5,-30 361.5,-10 341.5,-10"/>
<text text-anchor="start" x="365.23" y="-15.4" font-family="Times-12" font-size="14.00"> &#160;Module</text>
<polygon fill="#80b1d3" stroke="transparent" points="427.5,-10 427.5,-30 447.5,-30 447.5,-10 427.5,-10"/>
<text text-anchor="start" x="451.28" y="-15.4" font-family="Times-12" font-size="14.00"> &#160;Bootstrap</text>
<polygon fill="#fdb462" stroke="transparent" points="524.5,-10 524.5,-30 544.5,-30 544.5,-10 524.5,-10"/>
<text text-anchor="start" x="548.17" y="-15.4" font-family="Times-12" font-size="14.00"> &#160;Providers</text>
<polygon fill="#fb8072" stroke="transparent" points="620.5,-10 620.5,-30 640.5,-30 640.5,-10 620.5,-10"/>
<text text-anchor="start" x="644.23" y="-15.4" font-family="Times-12" font-size="14.00"> &#160;Exports</text>
<g id="clust1" class="cluster">
<title>cluster_AppModule</title>
<polygon fill="none" stroke="black" stroke-dasharray="1,5" points="8,-70 8,-195 917,-195 917,-70 8,-70"/>
</g>
<g id="clust6" class="cluster">
<title>cluster_AppModule_providers</title>
<polygon fill="none" stroke="black" points="779,-78 779,-130 909,-130 909,-78 779,-78"/>
</g>
<g id="clust3" class="cluster">
<title>cluster_AppModule_imports</title>
<polygon fill="none" stroke="black" points="16,-78 16,-130 771,-130 771,-78 16,-78"/>
</g>
<!-- AaaModule -->
<g id="node1" class="node">
<title>AaaModule</title>
<polygon fill="#8dd3c7" stroke="black" points="763.09,-122 760.09,-126 739.09,-126 736.09,-122 680.91,-122 680.91,-86 763.09,-86 763.09,-122"/>
<text text-anchor="middle" x="722" y="-99.8" font-family="Times,serif" font-size="14.00">AaaModule</text>
</g>
<!-- AppModule -->
<g id="node8" class="node">
<title>AppModule</title>
<polygon fill="#8dd3c7" stroke="black" points="506.66,-187 503.66,-191 482.66,-191 479.66,-187 423.34,-187 423.34,-151 506.66,-151 506.66,-187"/>
<text text-anchor="middle" x="465" y="-164.8" font-family="Times,serif" font-size="14.00">AppModule</text>
</g>
<!-- AaaModule&#45;&gt;AppModule -->
<g id="edge1" class="edge">
<title>AaaModule&#45;&gt;AppModule</title>
<path fill="none" stroke="black" d="M722,-122.11C722,-141.34 722,-169 722,-169 722,-169 516.86,-169 516.86,-169"/>
<polygon fill="black" stroke="black" points="516.86,-165.5 506.86,-169 516.86,-172.5 516.86,-165.5"/>
</g>
<!-- BbbModule -->
<g id="node2" class="node">
<title>BbbModule</title>
<polygon fill="#8dd3c7" stroke="black" points="663.39,-122 660.39,-126 639.39,-126 636.39,-122 580.61,-122 580.61,-86 663.39,-86 663.39,-122"/>
<text text-anchor="middle" x="622" y="-99.8" font-family="Times,serif" font-size="14.00">BbbModule</text>
</g>
<!-- BbbModule&#45;&gt;AppModule -->
<g id="edge2" class="edge">
<title>BbbModule&#45;&gt;AppModule</title>
<path fill="none" stroke="black" d="M622,-122.03C622,-138.4 622,-160 622,-160 622,-160 516.66,-160 516.66,-160"/>
<polygon fill="black" stroke="black" points="516.66,-156.5 506.66,-160 516.66,-163.5 516.66,-156.5"/>
</g>
<!-- MapModule -->
<g id="node3" class="node">
<title>MapModule</title>
<polygon fill="#8dd3c7" stroke="black" points="562.71,-122 559.71,-126 538.71,-126 535.71,-122 477.29,-122 477.29,-86 562.71,-86 562.71,-122"/>
<text text-anchor="middle" x="520" y="-99.8" font-family="Times,serif" font-size="14.00">MapModule</text>
</g>
<!-- MapModule&#45;&gt;AppModule -->
<g id="edge3" class="edge">
<title>MapModule&#45;&gt;AppModule</title>
<path fill="none" stroke="black" d="M492.11,-122.11C492.11,-122.11 492.11,-140.99 492.11,-140.99"/>
<polygon fill="black" stroke="black" points="488.61,-140.99 492.11,-150.99 495.61,-140.99 488.61,-140.99"/>
</g>
<!-- PersonModule -->
<g id="node4" class="node">
<title>PersonModule</title>
<polygon fill="#8dd3c7" stroke="black" points="459.65,-122 456.65,-126 435.65,-126 432.65,-122 362.35,-122 362.35,-86 459.65,-86 459.65,-122"/>
<text text-anchor="middle" x="411" y="-99.8" font-family="Times,serif" font-size="14.00">PersonModule</text>
</g>
<!-- PersonModule&#45;&gt;AppModule -->
<g id="edge4" class="edge">
<title>PersonModule&#45;&gt;AppModule</title>
<path fill="none" stroke="black" d="M441.5,-122.11C441.5,-122.11 441.5,-140.99 441.5,-140.99"/>
<polygon fill="black" stroke="black" points="438,-140.99 441.5,-150.99 445,-140.99 438,-140.99"/>
</g>
<!-- RedisModule -->
<g id="node5" class="node">
<title>RedisModule</title>
<polygon fill="#8dd3c7" stroke="black" points="343.94,-122 340.94,-126 319.94,-126 316.94,-122 252.06,-122 252.06,-86 343.94,-86 343.94,-122"/>
<text text-anchor="middle" x="298" y="-99.8" font-family="Times,serif" font-size="14.00">RedisModule</text>
</g>
<!-- RedisModule&#45;&gt;AppModule -->
<g id="edge5" class="edge">
<title>RedisModule&#45;&gt;AppModule</title>
<path fill="none" stroke="black" d="M298,-122.03C298,-138.4 298,-160 298,-160 298,-160 413.29,-160 413.29,-160"/>
<polygon fill="black" stroke="black" points="413.29,-163.5 423.29,-160 413.29,-156.5 413.29,-163.5"/>
</g>
<!-- UserModule -->
<g id="node6" class="node">
<title>UserModule</title>
<polygon fill="#8dd3c7" stroke="black" points="233.98,-122 230.98,-126 209.98,-126 206.98,-122 148.02,-122 148.02,-86 233.98,-86 233.98,-122"/>
<text text-anchor="middle" x="191" y="-99.8" font-family="Times,serif" font-size="14.00">UserModule</text>
</g>
<!-- UserModule&#45;&gt;AppModule -->
<g id="edge6" class="edge">
<title>UserModule&#45;&gt;AppModule</title>
<path fill="none" stroke="black" d="M191,-122.11C191,-141.34 191,-169 191,-169 191,-169 413.09,-169 413.09,-169"/>
<polygon fill="black" stroke="black" points="413.09,-172.5 423.09,-169 413.09,-165.5 413.09,-172.5"/>
</g>
<!-- WinstonModule -->
<g id="node7" class="node">
<title>WinstonModule</title>
<polygon fill="#8dd3c7" stroke="black" points="130.49,-122 127.49,-126 106.49,-126 103.49,-122 23.51,-122 23.51,-86 130.49,-86 130.49,-122"/>
<text text-anchor="middle" x="77" y="-99.8" font-family="Times,serif" font-size="14.00">WinstonModule</text>
</g>
<!-- WinstonModule&#45;&gt;AppModule -->
<g id="edge7" class="edge">
<title>WinstonModule&#45;&gt;AppModule</title>
<path fill="none" stroke="black" d="M77,-122.29C77,-144.21 77,-178 77,-178 77,-178 413.11,-178 413.11,-178"/>
<polygon fill="black" stroke="black" points="413.11,-181.5 423.11,-178 413.11,-174.5 413.11,-181.5"/>
</g>
<!-- AppService -->
<g id="node9" class="node">
<title>AppService</title>
<ellipse fill="#fdb462" stroke="black" cx="844" cy="-104" rx="56.74" ry="18"/>
<text text-anchor="middle" x="844" y="-99.8" font-family="Times,serif" font-size="14.00">AppService</text>
</g>
<!-- AppService&#45;&gt;AppModule -->
<g id="edge8" class="edge">
<title>AppService&#45;&gt;AppModule</title>
<path fill="none" stroke="black" d="M844,-122.29C844,-144.21 844,-178 844,-178 844,-178 517.01,-178 517.01,-178"/>
<polygon fill="black" stroke="black" points="517.01,-174.5 507.01,-178 517.01,-181.5 517.01,-174.5"/>
</g>
</g>
</svg>
