<?xml version="1.0" encoding="UTF-8" standalone="no"?>
<!DOCTYPE svg PUBLIC "-//W3C//DTD SVG 1.1//EN"
 "http://www.w3.org/Graphics/SVG/1.1/DTD/svg11.dtd">
<!-- Generated by graphviz version 2.47.0 (20210316.0004)
 -->
<!-- Title: dependencies Pages: 1 -->
<svg width="504pt" height="284pt"
 viewBox="0.00 0.00 504.00 284.00" xmlns="http://www.w3.org/2000/svg" xmlns:xlink="http://www.w3.org/1999/xlink">
<g id="graph0" class="graph" transform="scale(1 1) rotate(0) translate(4 280)">
<title>dependencies</title>
<polygon fill="white" stroke="transparent" points="-4,4 -4,-280 500,-280 500,4 -4,4"/>
<text text-anchor="start" x="227.01" y="-42.4" font-family="Times-12" font-weight="bold" font-size="14.00">Legend</text>
<polygon fill="#ffffb3" stroke="transparent" points="14,-10 14,-30 34,-30 34,-10 14,-10"/>
<text text-anchor="start" x="37.63" y="-15.4" font-family="Times-12" font-size="14.00"> &#160;Declarations</text>
<polygon fill="#8dd3c7" stroke="transparent" points="127,-10 127,-30 147,-30 147,-10 127,-10"/>
<text text-anchor="start" x="150.73" y="-15.4" font-family="Times-12" font-size="14.00"> &#160;Module</text>
<polygon fill="#80b1d3" stroke="transparent" points="213,-10 213,-30 233,-30 233,-10 213,-10"/>
<text text-anchor="start" x="236.78" y="-15.4" font-family="Times-12" font-size="14.00"> &#160;Bootstrap</text>
<polygon fill="#fdb462" stroke="transparent" points="310,-10 310,-30 330,-30 330,-10 310,-10"/>
<text text-anchor="start" x="333.67" y="-15.4" font-family="Times-12" font-size="14.00"> &#160;Providers</text>
<polygon fill="#fb8072" stroke="transparent" points="406,-10 406,-30 426,-30 426,-10 406,-10"/>
<text text-anchor="start" x="429.73" y="-15.4" font-family="Times-12" font-size="14.00"> &#160;Exports</text>
<g id="clust1" class="cluster">
<title>cluster_AaaModule</title>
<polygon fill="none" stroke="black" stroke-dasharray="1,5" points="121,-70 121,-268 375,-268 375,-70 121,-70"/>
</g>
<g id="clust4" class="cluster">
<title>cluster_AaaModule_exports</title>
<polygon fill="none" stroke="black" points="191,-208 191,-260 291,-260 291,-208 191,-208"/>
</g>
<g id="clust6" class="cluster">
<title>cluster_AaaModule_providers</title>
<polygon fill="none" stroke="black" points="239,-78 239,-130 367,-130 367,-78 239,-78"/>
</g>
<g id="clust3" class="cluster">
<title>cluster_AaaModule_imports</title>
<polygon fill="none" stroke="black" points="129,-78 129,-130 231,-130 231,-78 129,-78"/>
</g>
<!-- UserModule -->
<g id="node1" class="node">
<title>UserModule</title>
<polygon fill="#8dd3c7" stroke="black" points="222.98,-122 219.98,-126 198.98,-126 195.98,-122 137.02,-122 137.02,-86 222.98,-86 222.98,-122"/>
<text text-anchor="middle" x="180" y="-99.8" font-family="Times,serif" font-size="14.00">UserModule</text>
</g>
<!-- AaaModule -->
<g id="node2" class="node">
<title>AaaModule</title>
<polygon fill="#8dd3c7" stroke="black" points="282.09,-187 279.09,-191 258.09,-191 255.09,-187 199.91,-187 199.91,-151 282.09,-151 282.09,-187"/>
<text text-anchor="middle" x="241" y="-164.8" font-family="Times,serif" font-size="14.00">AaaModule</text>
</g>
<!-- UserModule&#45;&gt;AaaModule -->
<g id="edge1" class="edge">
<title>UserModule&#45;&gt;AaaModule</title>
<path fill="none" stroke="black" d="M211.47,-122.11C211.47,-122.11 211.47,-140.99 211.47,-140.99"/>
<polygon fill="black" stroke="black" points="207.97,-140.99 211.47,-150.99 214.97,-140.99 207.97,-140.99"/>
</g>
<!-- AaaService  -->
<g id="node3" class="node">
<title>AaaService </title>
<polygon fill="#fb8072" stroke="black" points="283.01,-252 198.99,-252 198.99,-216 283.01,-216 283.01,-252"/>
<text text-anchor="middle" x="241" y="-229.8" font-family="Times,serif" font-size="14.00">AaaService </text>
</g>
<!-- AaaModule&#45;&gt;AaaService  -->
<g id="edge2" class="edge">
<title>AaaModule&#45;&gt;AaaService </title>
<path fill="none" stroke="black" stroke-dasharray="5,2" d="M241,-187.11C241,-187.11 241,-205.99 241,-205.99"/>
<polygon fill="black" stroke="black" points="237.5,-205.99 241,-215.99 244.5,-205.99 237.5,-205.99"/>
</g>
<!-- AaaService -->
<g id="node4" class="node">
<title>AaaService</title>
<ellipse fill="#fdb462" stroke="black" cx="303" cy="-104" rx="55.57" ry="18"/>
<text text-anchor="middle" x="303" y="-99.8" font-family="Times,serif" font-size="14.00">AaaService</text>
</g>
<!-- AaaService&#45;&gt;AaaModule -->
<g id="edge3" class="edge">
<title>AaaService&#45;&gt;AaaModule</title>
<path fill="none" stroke="black" d="M264.75,-117.15C264.75,-117.15 264.75,-140.69 264.75,-140.69"/>
<polygon fill="black" stroke="black" points="261.25,-140.69 264.75,-150.69 268.25,-140.69 261.25,-140.69"/>
</g>
</g>
</svg>
